<svg xmlns="http://www.w3.org/2000/svg" viewBox="0 0 320 360" role="img" aria-labelledby="title desc">
  <title id="title">University of Malaya Shield</title>
  <desc id="desc">Stylised shield crest inspired by the University of Malaya emblem with blue field, gold scroll, hibiscus and tigers.</desc>
  <defs>
    <linearGradient id="shield" x1="0%" y1="0%" x2="0%" y2="100%">
      <stop offset="0%" stop-color="#2846ad" />
      <stop offset="100%" stop-color="#0f1f6d" />
    </linearGradient>
    <linearGradient id="banner" x1="0%" y1="0%" x2="100%" y2="0%">
      <stop offset="0%" stop-color="#f7d342" />
      <stop offset="100%" stop-color="#f2b427" />
    </linearGradient>
    <linearGradient id="hibiscus" x1="0%" y1="0%" x2="100%" y2="100%">
      <stop offset="0%" stop-color="#e41f26" />
      <stop offset="100%" stop-color="#8b0f14" />
    </linearGradient>
  </defs>
  <path d="M20 40 Q160 -10 300 40 V220 Q300 320 160 340 Q20 320 20 220 Z" fill="url(#shield)" stroke="#f0c236" stroke-width="10" />
  <path d="M60 58 Q160 20 260 58 V100 Q206 116 160 118 Q114 116 60 100 Z" fill="url(#banner)" stroke="#8f6b10" stroke-width="6" />
  <text x="160" y="95" font-family="'Trebuchet MS', 'Segoe UI', sans-serif" font-size="28" text-anchor="middle" fill="#2d2d2d" font-weight="700">ILMU PUNCA KEMAJUAN</text>
  <path d="M150 150 C135 142 120 128 110 120 C120 108 134 96 150 92 C160 90 170 94 176 104 C192 126 210 148 232 162 C214 168 192 170 176 166 C168 164 158 158 150 150 Z" fill="url(#hibiscus)" stroke="#5d0a0f" stroke-width="5" />
  <circle cx="182" cy="138" r="12" fill="#f6b02c" />
  <g fill="#f7d342" stroke="#8f6b10" stroke-width="4" stroke-linecap="round" stroke-linejoin="round">
    <path d="M70 150 C90 138 110 132 128 136 C134 158 134 186 126 210 C110 204 88 192 70 176 C84 174 96 166 98 154 C92 158 82 158 70 150 Z" />
    <path d="M250 150 C230 138 210 132 192 136 C186 158 186 186 194 210 C210 204 232 192 250 176 C236 174 224 166 222 154 C228 158 238 158 250 150 Z" />
  </g>
</svg>
