<svg width="256" height="300" viewBox="0 0 256 300" xmlns="http://www.w3.org/2000/svg" role="img" aria-labelledby="title desc">
  <title>University of Malaya Crest</title>
  <desc>Stylised crest of the University of Malaya with blue shield, golden book, three golden tigers and a red hibiscus.</desc>
  <defs>
    <linearGradient id="shield" x1="0" y1="0" x2="0" y2="1">
      <stop offset="0%" stop-color="#1d2f6f" />
      <stop offset="100%" stop-color="#1a237e" />
    </linearGradient>
    <linearGradient id="banner" x1="0" y1="0" x2="1" y2="0">
      <stop offset="0%" stop-color="#f9d648" />
      <stop offset="100%" stop-color="#f6c038" />
    </linearGradient>
  </defs>
  <path d="M20 24 h216 v126 c0 86 -74 134 -108 138 c-34 -4 -108 -52 -108 -138 z" fill="url(#shield)" stroke="#0f1b4c" stroke-width="8" stroke-linejoin="round" />
  <path d="M44 32 h168 v42 c0 5 -4 10 -9 10 h-150 c-5 0 -9 -5 -9 -10 z" fill="url(#banner)" stroke="#caa021" stroke-width="6" />
  <text x="128" y="63" font-size="20" font-family="'Roboto', 'Arial', sans-serif" fill="#102246" font-weight="700" text-anchor="middle">ILMU PUNCA KEMAJUAN</text>
  <g transform="translate(44,96)">
    <path d="M24 0 l36 12 -32 10 28 10 -28 10 32 10 -36 12 -8 -12 12 -10 -14 -10 14 -10 -12 -10 z" fill="#f4c440" stroke="#b8860b" stroke-width="4" stroke-linejoin="round" />
    <path d="M128 0 l36 12 -32 10 28 10 -28 10 32 10 -36 12 -8 -12 12 -10 -14 -10 14 -10 -12 -10 z" fill="#f4c440" stroke="#b8860b" stroke-width="4" stroke-linejoin="round" />
    <path d="M76 0 l36 12 -32 10 28 10 -28 10 32 10 -36 12 -8 -12 12 -10 -14 -10 14 -10 -12 -10 z" fill="#f4c440" stroke="#b8860b" stroke-width="4" stroke-linejoin="round" />
  </g>
  <g transform="translate(128 196)">
    <path d="M0 -28 c18 0 34 12 34 28 c0 26 -26 40 -34 68 c-8 -28 -34 -42 -34 -68 c0 -16 16 -28 34 -28 z" fill="#d62839" stroke="#8b1020" stroke-width="5" />
    <circle cx="0" cy="-6" r="6" fill="#f7d64a" />
  </g>
</svg>
