<svg width="200" height="200" viewBox="0 0 200 200" xmlns="http://www.w3.org/2000/svg" role="img" aria-labelledby="title desc">
  <title id="title">University of Malaya Inspired Shield</title>
  <desc id="desc">Stylised blue and gold shield inspired by the University of Malaya crest.</desc>
  <defs>
    <linearGradient id="shieldBlue" x1="0" x2="1" y1="0" y2="1">
      <stop offset="0%" stop-color="#0A3D91" />
      <stop offset="100%" stop-color="#1F6FE0" />
    </linearGradient>
    <linearGradient id="shieldGold" x1="0" x2="0" y1="0" y2="1">
      <stop offset="0%" stop-color="#F7C948" />
      <stop offset="100%" stop-color="#D9961E" />
    </linearGradient>
  </defs>
  <g transform="translate(20 20)">
    <path d="M80 0h0c44 0 80 12 80 12v78c0 41-28 68-80 90-52-22-80-49-80-90V12S36 0 80 0z" fill="url(#shieldBlue)" stroke="#082D6C" stroke-width="4" />
    <path d="M80 16c28 0 52 8 52 8v56c0 29-18 48-52 64-34-16-52-35-52-64V24s24-8 52-8z" fill="none" stroke="#F2E8C9" stroke-width="4" opacity="0.7" />
    <g transform="translate(28 32)">
      <path d="M24 0l16 22 16-22 16 22 16-22" fill="none" stroke="#F6D365" stroke-width="5" stroke-linecap="round" stroke-linejoin="round" />
      <path d="M0 38h104" stroke="url(#shieldGold)" stroke-width="10" stroke-linecap="round" />
      <path d="M24 54l16 22 16-22 16 22 16-22" fill="none" stroke="#F6D365" stroke-width="5" stroke-linecap="round" stroke-linejoin="round" />
    </g>
    <circle cx="80" cy="128" r="18" fill="url(#shieldGold)" stroke="#B87A1E" stroke-width="4" />
    <path d="M80 114l6 12h-12z" fill="#0A3D91" />
  </g>
</svg>
