<svg xmlns="http://www.w3.org/2000/svg" viewBox="0 0 320 360" role="img" aria-labelledby="title desc">
  <title id="title">University of Malaya Inspired Emblem</title>
  <desc id="desc">A stylised shield in blue and yellow inspired by the University of Malaya crest.</desc>
  <defs>
    <linearGradient id="shieldGradient" x1="0" x2="0" y1="0" y2="1">
      <stop offset="0" stop-color="#1d3e91" />
      <stop offset="1" stop-color="#123066" />
    </linearGradient>
    <linearGradient id="goldGradient" x1="0" x2="1" y1="0" y2="1">
      <stop offset="0" stop-color="#f7d94b" />
      <stop offset="1" stop-color="#f0b429" />
    </linearGradient>
    <linearGradient id="hibiscusGradient" x1="0" x2="1" y1="0" y2="1">
      <stop offset="0" stop-color="#d4102d" />
      <stop offset="1" stop-color="#8d041c" />
    </linearGradient>
  </defs>
  <path d="M160 10c-58 0-126 24-126 24v132c0 86 72 163 126 184 54-21 126-98 126-184V34s-68-24-126-24z" fill="url(#shieldGradient)" stroke="#10295c" stroke-width="10" stroke-linejoin="round" />
  <g transform="translate(40 50)">
    <path d="M0 0h240v62H0z" fill="url(#goldGradient)" stroke="#e0ad1f" stroke-width="6" />
    <text x="120" y="40" fill="#002b54" font-family="'Poppins', 'Segoe UI', sans-serif" font-size="28" font-weight="700" text-anchor="middle">ILMU PUNCA KEMAJUAN</text>
  </g>
  <g transform="translate(70 134)" fill="url(#goldGradient)" stroke="#e0ad1f" stroke-width="4">
    <path d="M24 18c-10 0-18 6-18 14 0 7 6 13 16 14-5 6-6 14-6 20 0 14 12 24 26 24 6 0 12-2 16-6-6 0-12-3-15-7 10-4 18-14 18-24 0-17-17-35-37-35z" />
    <path d="M182 18c-10 0-18 6-18 14 0 7 6 13 16 14-5 6-6 14-6 20 0 14 12 24 26 24 6 0 12-2 16-6-6 0-12-3-15-7 10-4 18-14 18-24 0-17-17-35-37-35z" />
    <path d="M103 18c-12 0-22 10-22 22 0 8 5 15 12 18-7 7-10 16-10 24 0 18 14 32 32 32s32-14 32-32c0-8-3-17-10-24 7-3 12-10 12-18 0-12-10-22-22-22h-24z" />
  </g>
  <g transform="translate(140 178)">
    <path d="M20 0C9 0 0 9 0 20s9 20 20 20 20-9 20-20S31 0 20 0z" fill="url(#hibiscusGradient)" stroke="#6b0112" stroke-width="4" />
    <path d="M20 4c-8 0-14 6-14 14s6 14 14 14 14-6 14-14S28 4 20 4z" fill="#f04a50" opacity="0.7" />
    <path d="M20 40c-4 7-5 16-5 16 8-4 14-9 20-16H20z" fill="#6b0112" />
  </g>
</svg>
