<svg width="240" height="300" viewBox="0 0 240 300" xmlns="http://www.w3.org/2000/svg" role="img" aria-labelledby="title desc">
  <title id="title">University of Malaya emblem</title>
  <desc id="desc">Stylised crest inspired by the University of Malaya colours</desc>
  <defs>
    <linearGradient id="shieldGradient" x1="0" y1="0" x2="0" y2="1">
      <stop offset="0%" stop-color="#0f3b8c" />
      <stop offset="100%" stop-color="#08255c" />
    </linearGradient>
    <linearGradient id="accentGradient" x1="0" y1="0" x2="1" y2="1">
      <stop offset="0%" stop-color="#f2c200" />
      <stop offset="100%" stop-color="#f8e16a" />
    </linearGradient>
  </defs>
  <g transform="translate(20,20)">
    <path d="M100 0c55 0 100 18 100 18v120c0 48-41 98-100 142C41 236 0 186 0 138V18S45 0 100 0z" fill="url(#shieldGradient)" stroke="#ffe27a" stroke-width="6" stroke-linejoin="round" />
    <path d="M100 30c34 0 62 10 62 10v88c0 35-27 72-62 100-35-28-62-65-62-100V40s28-10 62-10z" fill="none" stroke="#ffe27a" stroke-width="6" stroke-linecap="round" stroke-linejoin="round" />
    <g transform="translate(32,48)">
      <path d="M36 0c9 14 20 26 34 26s25-12 34-26l12 12c-12 20-29 38-46 38S38 32 26 12z" fill="url(#accentGradient)" />
      <path d="M68 52l18 30-18 12-18-12z" fill="#d62828" />
      <circle cx="68" cy="92" r="10" fill="#ffe27a" />
    </g>
  </g>
</svg>
