<svg width="512" height="640" viewBox="0 0 512 640" fill="none" xmlns="http://www.w3.org/2000/svg" role="img" aria-labelledby="title desc">
  <title id="title">Universiti Malaya inspired crest</title>
  <desc id="desc">A stylised shield in University of Malaya colours featuring the motto Ilmu Punca Kemajuan with simplified iconography.</desc>
  <defs>
    <linearGradient id="shieldGradient" x1="0" y1="0" x2="0" y2="1">
      <stop offset="0%" stop-color="#1E3A8A" />
      <stop offset="100%" stop-color="#1D4ED8" />
    </linearGradient>
    <linearGradient id="bannerGradient" x1="0" y1="0" x2="1" y2="0">
      <stop offset="0%" stop-color="#FCD34D" />
      <stop offset="100%" stop-color="#FBBF24" />
    </linearGradient>
    <linearGradient id="accentGradient" x1="0" y1="0" x2="1" y2="1">
      <stop offset="0%" stop-color="#F87171" />
      <stop offset="100%" stop-color="#EF4444" />
    </linearGradient>
  </defs>
  <path d="M64 32H448V352C448 443.589 367.589 512 276 576C256 590 256 590 236 576C144.411 512 64 443.589 64 352V32Z" fill="url(#shieldGradient)" stroke="#FCD34D" stroke-width="20" stroke-linejoin="round" />
  <path d="M104 80H408L360 140H152L104 80Z" fill="url(#bannerGradient)" stroke="#F59E0B" stroke-width="12" stroke-linejoin="round" />
  <text x="256" y="128" text-anchor="middle" font-family="'Poppins', 'Segoe UI', sans-serif" font-size="40" font-weight="700" fill="#1E293B">ILMU PUNCA KEMAJUAN</text>
  <g transform="translate(120 180)">
    <path d="M80 0C104 40 160 40 184 0" stroke="#FBBF24" stroke-width="12" stroke-linecap="round" />
    <path d="M0 48C40 80 120 88 160 64C200 88 280 80 320 48" stroke="#FBBF24" stroke-width="12" stroke-linecap="round" />
    <path d="M40 120C80 150 120 150 160 120C200 150 240 150 280 120" stroke="#FBBF24" stroke-width="12" stroke-linecap="round" />
  </g>
  <g transform="translate(170 250)">
    <path d="M70 0C52 0 38 14 38 32C38 50 52 64 70 64C88 64 102 50 102 32C102 14 88 0 70 0Z" fill="url(#accentGradient)" />
    <path d="M16 96C32 116 60 120 80 112" stroke="#FCD34D" stroke-width="10" stroke-linecap="round" />
    <path d="M124 96C108 116 80 120 60 112" stroke="#FCD34D" stroke-width="10" stroke-linecap="round" />
  </g>
  <text x="256" y="460" text-anchor="middle" font-family="'Poppins', 'Segoe UI', sans-serif" font-size="120" font-weight="700" fill="#FACC15" letter-spacing="10">UM</text>
  <text x="256" y="520" text-anchor="middle" font-family="'Poppins', 'Segoe UI', sans-serif" font-size="40" font-weight="600" fill="#BFDBFE">UNIVERSITI MALAYA</text>
</svg>
